# xmcd
#
# Track frame offsets:
#	150
#	15352
#	36434
#	50855
#	64214
#	76521
#	92903
#	106209
#	120712
#	138037
#	150785
#	170496
#	185248
#	199252
#
# Disc length: 2869
#
# Revision: 1
# Processed by: cddbd v1.5.1PL0 Copyright (c) Steve Scherf et al.
# Submitted via: VisiTrax 2.9.10.228 - For more info visit www.synapsa.com
# Normalized: r0:DSETVAR1
#
DISCID=b40b330e
DTITLE=Various Artist - Mr. Music Country 2005-01
DYEAR=2005
DGENRE=
TTITLE0=Mike Siler - Ridin' For Love
TTITLE1=Pauline Reese - Remember November
TTITLE2=The Remingtons - Nobody Loves You When You're Free
TTITLE3=Jeff Bates - My Inlaws Are Outlaws
TTITLE4=Aaron Russell - We Better Ride
TTITLE5=Candi Carpenter and Jack Greene - Walk Softly On This Heart Of Mine
TTITLE6=Kenny Chesney - High And Dry
TTITLE7=Randy Corner and Carla Taylor - Cheaters
TTITLE8=Jimmie Dale Gilmore - Ramblin' Man
TTITLE9=Carolina Åkerlind - Black Vinyl Car Seat
TTITLE10=Tommy Shane Steiner and Randy Travis - I Don't Need Another Reason
TTITLE11=Montana Rose and Claudia Appling Williams - South Of The Border
TTITLE12=Johnny Bush and Tommy Alverson - Jones On The Jukebox
TTITLE13=Cowboy Johnson - Makes Me Wonder If I Ever Said Goodbye
EXTD=
EXTT0=
EXTT1=
EXTT2=
EXTT3=
EXTT4=
EXTT5=
EXTT6=
EXTT7=
EXTT8=
EXTT9=
EXTT10=
EXTT11=
EXTT12=
EXTT13=
PLAYORDER=
